# xmcd
#
# Track frame offsets: 
#        150
#        16406
#        34285
#        52351
#        71193
#        90752
#        107699
#        125709
#        141461
#        155679
#        166969
#        182917
#        199876
#        217250
#        228373
#
# Disc length: 3287 seconds
#
# Revision: 0
# Processed by: cddbd v1.5.2PL0 Copyright (c) Steve Scherf et al.
# Submitted via: ExactAudioCopy v0.99pb4
#
DISCID=e80cd50f
DTITLE=Billy Crash - Die Wäschbrigg
DYEAR=2007
DGENRE=Blues
TTITLE0=Du bist als Kind zu heiss gebaadt worn
TTITLE1=Ei Jean
TTITLE2=Den Doodesdaach, den wollt ich nit erlebe
TTITLE3=Du bist
TTITLE4=Himbeereis ver scheene Meenzer Meedcher
TTITLE5=Die Teite ännern sich
TTITLE6=Hank
TTITLE7=Türkisch Nougat
TTITLE8=Samba in de Pampa
TTITLE9=Un leis rieselt de Schnee
TTITLE10=Bin eebsch druff
TTITLE11=Glücklich soi, des muss mer wolle
TTITLE12=Hup's
TTITLE13=Moin's um sibbe om Rhoi
TTITLE14=Wäschbrigg Overtüre
EXTD=
EXTT0=
EXTT1=
EXTT2=
EXTT3=
EXTT4=
EXTT5=
EXTT6=
EXTT7=
EXTT8=
EXTT9=
EXTT10=
EXTT11=
EXTT12=
EXTT13=
EXTT14=
PLAYORDER=
